<?xml version="1.0" encoding="utf-8"?>
<!-- Generator: Adobe Illustrator 22.1.0, SVG Export Plug-In . SVG Version: 6.00 Build 0)  -->
<svg version="1.1" id="Layer_1" xmlns="http://www.w3.org/2000/svg" xmlns:xlink="http://www.w3.org/1999/xlink" x="0px" y="0px"
	 viewBox="0 0 343.5 85" style="enable-background:new 0 0 343.5 85;" xml:space="preserve">
<style type="text/css">
	.st0{fill:url(#SVGID_1_);}
	.st1{fill:#A3AAAD;}
	.st2{fill:none;}
	.st3{font-family:'OpenSans';}
	.st4{font-size:25px;}
	.st5{font-size:20px;}
</style>
<linearGradient id="SVGID_1_" gradientUnits="userSpaceOnUse" x1="43.3422" y1="8.2486" x2="43.3422" y2="88.3327" gradientTransform="matrix(1 0 0 -1 0 91)">
	<stop  offset="0" style="stop-color:#8BB232"/>
	<stop  offset="1" style="stop-color:#BDCC2A"/>
</linearGradient>
<path class="st0" d="M11.6,42.7c0-17.6,14.3-31.8,31.8-31.8c17.5,0,31.7,14.3,31.7,31.8c0,17.6-14.3,31.8-31.8,31.8
	C25.9,74.5,11.6,60.2,11.6,42.7 M43.3,2.7c-22,0-40,18-40,40c0,22.1,18,40.1,40,40.1c22.1,0,40-18,40-40.1
	C83.4,20.6,65.5,2.7,43.3,2.7L43.3,2.7z"/>
<path class="st1" d="M45.8,23.5c-4.2,0-7.3,1.9-9.8,4.1L35.8,25c0-0.3-0.3-0.6-0.6-0.6h-8.1c-0.3,0-0.6,0.3-0.6,0.6v36.2
	c0,0.3,0.3,0.6,0.6,0.6h9c0.3,0,0.6-0.3,0.6-0.6V36.3c3.3-3.7,4.7-4.3,6.9-4.3c3,0,6.2,2,6.2,7.8v21.5c0,0.3,0.3,0.6,0.6,0.6h9
	c0.3,0,0.6-0.3,0.6-0.6V37.9C60.2,28.5,53,23.5,45.8,23.5"/>
<rect x="95" y="19.1" class="st2" width="212" height="27"/>
<text transform="matrix(1 0 0 1 95 38.0783)" class="st1 st3 st4">Nelnet Marketing</text>
<rect x="95" y="53.8" class="st2" width="253" height="17.1"/>
<text transform="matrix(1 0 0 1 95 69.0407)" class="st1 st3 st5">New Hire Information Hub</text>
</svg>
