<svg xmlns="http://www.w3.org/2000/svg" viewBox="0 0 477.97 144.29"><title>logo</title><g id="Layer_2" data-name="Layer 2"><g id="Layer_1-2" data-name="Layer 1"><path d="M470,59.43h-1.27V63.8a.66.66,0,0,1-1.31,0V59.43h-1.27a.58.58,0,0,1-.57-.59.57.57,0,0,1,.57-.56H470a.57.57,0,0,1,0,1.15Z" fill="#00a399"/><path d="M477.31,64.45a.65.65,0,0,1-.65-.65V60.12L475,64.21a.39.39,0,0,1-.37.24.38.38,0,0,1-.35-.24l-1.65-4.1v3.7a.65.65,0,0,1-1.3,0V59a.74.74,0,0,1,.73-.73c.6-.06,1.11.06,1.33.6l1.25,3.1,1.25-3.1a1,1,0,0,1,.89-.6c.59-.09,1.18.13,1.18.73V63.8A.66.66,0,0,1,477.31,64.45Z" fill="#00a399"/><path d="M208.85,103.08H190.41a5.25,5.25,0,0,1-5.23-5.23V64.69a5.25,5.25,0,0,1,5.23-5.23h17.72c8.3,0,12.55,5.3,12.55,11.12,0,5.49-3.4,9.15-7.52,10,4.64.72,8.37,5.23,8.37,10.72C221.54,97.85,217.16,103.08,208.85,103.08Zm-2.75-35.64H194.47v9.48h11.64c3.14,0,5.1-2,5.1-4.71S209.24,67.44,206.11,67.44Zm.33,17.46h-12V95h12c3.53,0,5.62-1.9,5.62-5C212.06,87.25,210.09,84.9,206.43,84.9Z" fill="#00597b"/><path d="M253.64,89.93H234.15c.52,4,3.73,7.32,9.09,7.32a14,14,0,0,0,6.15-1.57A3.75,3.75,0,0,1,251,95.3a3.47,3.47,0,0,1,3.53,3.33c0,3.73-8,5.23-12.23,5.23-9.61,0-16.87-6.47-16.87-16.61,0-9.15,6.74-16.54,16.35-16.54a15.07,15.07,0,0,1,14.78,10.66,16.7,16.7,0,0,1,.92,4.77A3.85,3.85,0,0,1,253.64,89.93ZM241.8,77.31c-5.17,0-7.39,3.86-7.78,7h15.56C249.39,81.3,247.3,77.31,241.8,77.31Z" fill="#00597b"/><path d="M288.08,103.47A4.1,4.1,0,0,1,284,99.35V84c0-4.38-2.29-5.89-5.82-5.89a9,9,0,0,0-7.19,3.73V99.35a4.15,4.15,0,0,1-8.3,0V75.16a4.12,4.12,0,0,1,4.25-4.05,4.07,4.07,0,0,1,4.05,4.05v.46A14.46,14.46,0,0,1,282,70.71c6.93,0,10.27,3.92,10.27,10.07V99.35A4.12,4.12,0,0,1,288.08,103.47Z" fill="#00597b"/><path d="M325.8,89.93H306.32c.52,4,3.73,7.32,9.09,7.32a14,14,0,0,0,6.15-1.57,3.75,3.75,0,0,1,1.64-.39,3.47,3.47,0,0,1,3.53,3.33c0,3.73-8,5.23-12.23,5.23-9.61,0-16.87-6.47-16.87-16.61,0-9.15,6.74-16.54,16.35-16.54a15.07,15.07,0,0,1,14.78,10.66,16.7,16.7,0,0,1,.92,4.77A3.85,3.85,0,0,1,325.8,89.93ZM314,77.31c-5.17,0-7.39,3.86-7.78,7h15.56C321.55,81.3,319.46,77.31,314,77.31Z" fill="#00597b"/><path d="M350.71,65.35H350c-2.29,0-4,1.5-4,4.45v1.7h3.27a3.63,3.63,0,0,1,0,7.26H346v20.6a4.19,4.19,0,0,1-8.37,0V78.75h-2A3.66,3.66,0,0,1,332,75a3.62,3.62,0,0,1,3.6-3.53h2v-1.7c0-6.87,4.45-11,10.66-11,3.6,0,5.3,1,5.3,3.33A3,3,0,0,1,350.71,65.35Zm15.56-2.22a5,5,0,1,1-5-4.9A4.91,4.91,0,0,1,366.28,63.12Zm-5,40.34a4.1,4.1,0,0,1-4.12-4.12V75.16a4.12,4.12,0,0,1,4.25-4.05,4.07,4.07,0,0,1,4.05,4.05V99.35A4.12,4.12,0,0,1,361.31,103.47Z" fill="#00597b"/><path d="M384.32,103.86c-5.82,0-9-3-9-8.63V78.75h-2a3.66,3.66,0,0,1-3.6-3.73,3.62,3.62,0,0,1,3.6-3.53h2v-4.9a4.19,4.19,0,0,1,8.37,0v4.9H387a3.63,3.63,0,0,1,0,7.26h-3.27V93c0,2.48,1.57,3.47,2.88,3.47h.72a3.41,3.41,0,0,1,3.66,3.6C391,102.16,389.75,103.86,384.32,103.86Z" fill="#00597b"/><path d="M425,103.08H401.25A5.25,5.25,0,0,1,396,97.85V64.69a5.25,5.25,0,0,1,5.23-5.23h22.89a4.09,4.09,0,0,1,0,8.17H405.31v9.22h17.52a4.09,4.09,0,0,1,0,8.17H405.31V94.9H425a4,4,0,0,1,4,4A4.09,4.09,0,0,1,425,103.08Z" fill="#00a399"/><path d="M458.07,103.47A4.1,4.1,0,0,1,454,99.35V99a12.26,12.26,0,0,1-9.74,4.84c-8,0-14-6-14-16.54,0-10.33,5.95-16.61,14-16.61A12.16,12.16,0,0,1,454,75.55V63.19a4.19,4.19,0,0,1,8.37,0V99.35A4.13,4.13,0,0,1,458.07,103.47ZM454,81.69a9,9,0,0,0-7.19-3.6c-4.71,0-8,3.73-8,9.22s3.27,9.15,8,9.15a9,9,0,0,0,7.19-3.6Z" fill="#00a399"/><path d="M135.39,99.94,126.24,97a46.36,46.36,0,1,0-88.43,0l-9.15,2.89a56,56,0,1,1,106.72,0Z" fill="#00a399"/><path d="M115.19,93.66l-9.32-2.4a28.26,28.26,0,0,0,1.33-8,24.78,24.78,0,1,0-49.56,0,28.72,28.72,0,0,0,1.29,8.06l-9.29,2.33a34.37,34.37,0,1,1,65.55,0Z" fill="#00597b"/><path d="M82.41,122.51a34.41,34.41,0,0,1-22-8,4.8,4.8,0,1,1,6.15-7.36,24.78,24.78,0,0,0,31.75,0,4.8,4.8,0,1,1,6.15,7.36A34.42,34.42,0,0,1,82.41,122.51Z" fill="#00597b"/><path d="M82,144.29c-21.39,0-41.28-12.88-50.66-32.83a4.8,4.8,0,0,1,8.68-4.08C47.86,124,64.34,134.7,82,134.7a46.3,46.3,0,0,0,42.72-28.32,4.8,4.8,0,0,1,8.83,3.74A55.88,55.88,0,0,1,82,144.29Z" fill="#00597b"/><path d="M157.63,100.66H4.8a4.8,4.8,0,1,1,0-9.59H157.63a4.8,4.8,0,1,1,0,9.59Z" fill="#00597b"/><path d="M82.39,21.1a4.8,4.8,0,0,1-4.8-4.8V4.8a4.8,4.8,0,0,1,9.59,0V16.31A4.8,4.8,0,0,1,82.39,21.1Z" fill="#00a399"/><path d="M131,40.83a4.8,4.8,0,0,1-3.39-8.19l8.14-8.14a4.8,4.8,0,0,1,6.78,6.78l-8.14,8.14A4.78,4.78,0,0,1,131,40.83Z" fill="#00a399"/><path d="M34.21,38.89a4.78,4.78,0,0,1-3.39-1.4l-8.14-8.14a4.8,4.8,0,0,1,6.78-6.78l8.14,8.14a4.8,4.8,0,0,1-3.39,8.19Z" fill="#00a399"/><path d="M16.31,77.42H4.8a4.8,4.8,0,0,1,0-9.59H16.31a4.8,4.8,0,1,1,0,9.59Z" fill="#00a399"/><path d="M158.31,77.42H146.8a4.8,4.8,0,0,1,0-9.59h11.51a4.8,4.8,0,1,1,0,9.59Z" fill="#00a399"/></g></g></svg>